PathFileType	4	(X/Y/Z)	C:\Users\WrightLab\Desktop\Jo\P5V124.trc
DataRate	CameraRate	NumFrames	NumMarkers	Units	OrigDataRate	OrigDataStartFrame	OrigNumFrames
100.00	100.00	       38	19	mm	100.00	469	       624
Frame#	Time	Headset_Front			Headset_Back			Headset_Left			Headset_Right			Left_Shoulder			Right_Shoulder			Sternum			C7			Left Elbow			Right Elbow			Left Wrist			Right Wrist			Left ASIS			Right ASIS			S2			Left Knee			Right Knee			Left Ankle			Right Ankle			
		X1	Y1	Z1	X2	Y2	Z2	X3	Y3	Z3	X4	Y4	Z4	X5	Y5	Z5	X6	Y6	Z6	X7	Y7	Z7	X8	Y8	Z8	X9	Y9	Z9	X10	Y10	Z10	X11	Y11	Z11	X12	Y12	Z12	X13	Y13	Z13	X14	Y14	Z14	X15	Y15	Z15	X16	Y16	Z16	X17	Y17	Z17	X18	Y18	Z18	X19	Y19	Z19	

469	4.680	-817.70581	1349.53528	1370.70020													-1029.28589	1487.72412	1350.14880							-565.44537	1236.72266	1143.70654	-1162.03577	1235.10669	1275.55786	-498.91269	1001.48016	1200.58313	-1126.86902	1036.28967	1425.68542	-676.82898	956.59698	1325.56726	-957.71490	974.09442	1351.14844	-845.17065	1004.88147	1065.42761	-688.11719	541.93976	1369.57190				-755.74115	134.98387	1386.45984	-995.93945	140.32303	1040.51501	
470	4.690	-815.96021	1348.66235	1378.88867													-1027.23120	1487.29260	1360.06091							-566.56879	1234.85498	1148.72083	-1161.11902	1234.78625	1287.00391	-499.73828	998.74438	1203.09631	-1124.74316	1036.69629	1437.10828	-675.75293	955.53192	1330.18408	-956.96411	974.39203	1359.25146	-846.34735	1003.85211	1073.54663	-686.06604	539.32361	1372.04614				-756.34100	131.74995	1409.26038	-996.00684	141.78693	1041.64832	
471	4.700	-814.62054	1348.49121	1386.97913													-1024.85352	1486.70581	1369.92639							-567.01416	1233.53076	1152.76160	-1159.89807	1234.62573	1298.21594	-500.33044	997.34326	1205.19983	-1122.34241	1036.91870	1448.41309	-675.32159	954.50244	1338.22791	-954.66559	973.96552	1368.14404	-847.26953	1003.38739	1082.00024	-684.53888	536.41888	1374.32288				-757.84308	128.81670	1429.63049	-995.93799	143.21133	1042.76160	
472	4.710	-812.29498	1347.65332	1395.24475													-1022.87268	1486.50024	1379.77173							-567.83154	1233.66052	1159.54370	-1158.36096	1234.55933	1309.46350	-500.20218	995.86951	1208.52307	-1119.28711	1036.48242	1459.55969	-674.49744	954.21509	1345.79346	-953.25232	974.97925	1377.65100	-847.36462	1002.02771	1089.32104	-683.01068	533.68567	1376.52295				-758.36511	127.45030	1448.70630	-995.91705	145.29352	1042.88696	
473	4.720	-809.90906	1347.16882	1403.34546													-1020.75739	1486.24463	1389.46924							-567.59412	1231.37646	1163.58533	-1156.63647	1234.09546	1320.56946	-500.31540	994.47174	1211.05920	-1116.46912	1036.81982	1470.57788	-673.25568	952.99805	1352.35376	-952.09576	976.12390	1387.53040	-848.51483	1002.75677	1097.10547	-682.27185	530.46222	1379.08887				-759.97217	125.77615	1466.89807	-995.92249	146.82951	1046.83801	
474	4.730																-1018.25543	1486.03320	1399.10046							-567.98755	1231.36169	1173.81042	-1155.12976	1234.21741	1331.54187	-500.03473	992.90863	1215.24011	-1113.42883	1036.96790	1481.44312	-672.18671	952.50372	1359.27234	-949.68884	976.45514	1397.81006	-848.45856	1000.56763	1104.79236	-681.98029	526.44916	1382.08435				-761.16022	125.70412	1481.49268	-995.99066	148.81216	1049.15417	
475	4.740																-1015.35120	1485.56677	1408.59705							-567.91309	1230.62073	1179.46289	-1152.95605	1233.80872	1342.39648	-500.02844	991.17206	1217.86804	-1109.68921	1036.60181	1492.17627	-668.66595	952.22626	1369.19104				-848.11499	999.99841	1115.22314	-681.83380	523.72107	1385.42517				-763.69354	124.14538	1494.10205	-996.30817	151.11270	1050.56287	
476	4.750																-1012.45081	1485.50806	1417.96265							-567.59924	1227.38538	1180.92102	-1150.39624	1233.31641	1353.08521	-500.31943	989.25482	1221.32483	-1106.17090	1036.93311	1502.80139	-667.04688	952.34204	1377.11426				-848.26495	998.80646	1122.95898	-682.68250	519.91003	1388.56714				-765.39197	123.88656	1504.11011	-996.55139	153.62027	1051.79553	
477	4.760																-1011.65106	1483.57959	1432.21301							-567.39050	1226.68091	1186.90234	-1147.86707	1233.19287	1363.70435	-499.91321	987.68237	1225.07495	-1101.98755	1036.44568	1513.32190	-666.96442	951.46912	1383.98230				-847.74066	997.07318	1131.96069	-684.08630	517.77795	1393.98950				-766.66833	122.94634	1513.85303	-996.65350	156.19333	1054.13782	
478	4.770																-1008.00330	1483.27563	1440.50549							-567.01520	1226.04053	1193.85364	-1144.82092	1232.49597	1374.18274	-499.78906	985.86456	1229.93396	-1097.94373	1036.40588	1523.81213	-665.14850	950.74384	1392.88513				-847.10236	996.18225	1141.38208	-687.03784	516.02307	1400.47888				-768.37042	120.95108	1521.46863	-997.32068	160.25140	1056.28455	
479	4.780																									-565.39825	1224.88062	1202.72974	-1142.05054	1232.54443	1384.49878	-499.89526	983.19867	1234.26196	-1094.35754	1036.92017	1534.13806	-664.54315	948.62103	1401.50769				-846.72052	994.27606	1151.18921	-690.18768	514.10901	1407.91858				-770.68396	117.70252	1527.06311	-997.54224	162.27037	1061.45239	
480	4.790																									-564.32056	1223.21216	1208.33936	-1138.82104	1231.99536	1394.68958	-499.78778	981.09576	1239.30115	-1090.30859	1036.91174	1544.46838	-661.97534	949.77417	1411.01941				-845.95398	992.19763	1160.51318	-692.58124	513.65802	1415.74158				-770.82648	115.68443	1528.78296	-998.94727	166.33926	1064.58533	
481	4.800																									-563.28766	1221.27380	1212.21387	-1135.48206	1231.62854	1404.74487	-499.71844	979.17670	1245.07886	-1085.86816	1037.12268	1554.65576	-659.90405	948.38013	1419.54407				-844.96899	989.58960	1170.77258	-694.86230	512.88794	1424.47363				-771.15936	115.24574	1533.13562	-1000.62927	170.38403	1067.94958	
482	4.810																									-562.06519	1218.76575	1216.14514	-1132.17053	1231.32629	1414.57141	-498.95630	977.23785	1250.36096	-1081.09314	1036.72839	1564.90686	-657.18036	948.34888	1429.60742				-844.42969	988.11456	1180.06970	-697.29260	510.61893	1433.21094				-773.98029	114.07946	1537.44287	-1001.99481	174.00243	1074.88574	
483	4.820																									-560.10730	1217.69287	1225.72278	-1128.59277	1230.74231	1424.30310	-498.86456	974.37598	1254.59070				-655.87378	947.51538	1438.39514				-843.47418	986.17487	1191.07629	-698.33600	508.85602	1442.38318				-774.69470	115.01147	1539.25073	-1003.85724	179.70264	1081.61243	
484	4.830																									-558.97449	1215.97571	1227.25134	-1125.16101	1230.71265	1433.92004	-498.35770	973.61542	1261.44495				-653.76172	946.68561	1448.69519				-842.80261	983.92737	1200.23059	-697.68665	507.26724	1451.77356				-774.92627	114.80494	1540.25024	-1005.65686	184.13443	1090.64417	
485	4.840																									-556.32983	1215.67029	1236.43945	-1121.28760	1230.12720	1443.52588	-498.99255	971.54767	1267.51123				-651.01331	947.31451	1457.90503				-841.30841	981.85138	1211.45544	-698.85352	505.43970	1461.45642				-775.82898	115.10574	1542.25354	-1007.56000	190.28008	1101.70544	
486	4.850																									-555.62915	1214.92712	1240.68689	-1117.78967	1230.71301	1453.00745	-497.75186	971.32318	1274.34192				-648.78027	947.60846	1467.83740				-840.09967	981.24310	1220.69763	-698.07599	505.81729	1470.91040				-775.63800	117.05172	1542.06921	-1009.36322	196.93723	1113.27673	
487	4.860																									-553.77057	1213.55054	1244.89563	-1113.66895	1230.89758	1462.43176	-498.21951	970.07440	1280.65906				-647.29016	947.77844	1476.77356				-838.97382	980.37213	1231.36658	-693.87793	508.17218	1481.47607				-774.92346	117.25578	1543.27283	-1011.45691	203.63496	1125.37439	
488	4.870																									-552.83832	1212.88806	1247.44641	-1108.81604	1231.02222	1471.77649	-497.93048	970.34875	1287.27759				-644.30017	950.50916	1486.07544				-837.33032	979.62195	1241.37634	-691.34210	511.29626	1490.66382				-774.48627	117.71603	1543.41138	-1013.87421	211.18617	1141.11975	
489	4.880																									-550.39136	1213.80212	1257.53296	-1104.06824	1231.71582	1480.95081	-497.81918	970.58130	1294.77307				-641.05817	951.61053	1492.01367				-836.30646	980.22559	1251.15833	-688.27795	513.37952	1499.55176				-774.72949	117.44966	1544.39441	-1016.03186	218.76437	1156.90100	
490	4.890																									-550.30408	1214.89526	1261.06702	-1099.71619	1232.39075	1490.11792	-498.29169	970.53540	1301.33008				-638.52008	954.23450	1501.21106				-834.73523	980.84448	1261.31519	-684.06311	516.57043	1509.22998				-774.98035	117.71301	1544.49048	-1017.97638	227.03415	1171.65491	
491	4.900																									-548.26184	1214.90771	1268.00793	-1095.41150	1232.95398	1499.13098	-496.71207	971.76215	1307.59277				-637.06171	954.47137	1508.88843				-833.23029	980.44537	1270.41785	-681.71375	517.68817	1516.56750				-774.86176	117.64385	1544.93604	-1019.40369	235.57875	1188.11963	
492	4.910																									-549.74054	1214.52234	1270.67004	-1091.57251	1233.90930	1508.03491	-496.00473	972.51910	1314.74463				-634.14728	956.53107	1514.89404				-831.87177	981.33313	1280.54309	-676.88409	518.12616	1525.42041				-774.91138	117.65414	1545.70874	-1020.60370	244.61772	1205.14417	
493	4.920																												-1087.71179	1234.32300	1516.93420	-495.57028	974.25189	1321.22266				-631.91028	957.98584	1521.66833				-829.97107	980.90521	1289.49072	-673.31952	518.81641	1533.04028				-774.90741	117.70943	1546.23450	-1021.27319	251.76642	1225.66760	
494	4.930																												-1084.09070	1234.75879	1525.90295	-495.76614	975.37231	1328.28748				-628.18945	959.53168	1528.01270				-827.98016	981.99194	1299.69153	-669.40558	518.90057	1541.24219				-774.81750	117.82686	1546.26001	-1022.00317	259.11160	1244.76550	
495	4.940																															-494.39029	975.82092	1334.88953				-626.61639	960.89392	1533.66187				-825.61017	982.86157	1309.11340	-664.33990	519.06995	1548.38403				-774.37854	117.81144	1546.36304	-1022.05475	267.10541	1262.41785	
496	4.950																															-493.73453	976.47760	1341.61951				-623.89740	962.25714	1539.94849				-823.97858	983.28979	1318.34082	-659.88513	517.45319	1554.62036				-774.26617	117.74587	1546.71594	-1022.26813	274.20050	1281.22595	
497	4.960																															-492.55386	978.28961	1348.46960				-619.47156	962.99463	1544.20361				-821.11426	985.02960	1328.84998	-655.57672	517.35040	1560.43005				-774.71954	118.10738	1546.34729	-1021.78741	280.50800	1298.67566	
498	4.970																															-491.24915	979.55554	1355.24316				-616.76758	964.38953	1550.04761				-819.18945	986.13403	1337.21545	-650.87512	516.11700	1564.86511				-774.64435	118.37364	1546.03015	-1020.72345	286.27975	1318.42566	
499	4.980																															-490.34070	981.28961	1362.68506				-612.41864	965.66327	1554.48328				-816.72400	987.14893	1347.33704	-645.12305	516.85767	1570.05457				-774.65399	118.41386	1546.04810	-1019.48541	291.79828	1335.91626	
500	4.990																															-489.04929	982.63525	1368.74146				-608.54175	966.40363	1560.34509				-814.40509	988.30457	1357.02563	-639.95709	515.95483	1574.97864				-774.34027	118.40025	1546.28198	-1017.66132	296.02139	1355.47778	
501	5.000																															-487.73709	984.32562	1375.70837				-603.32715	967.74048	1565.29309				-812.48425	989.45380	1365.33569	-633.93958	517.49396	1578.44019				-774.26648	118.46803	1546.29175	-1015.81000	299.04977	1376.40515	
502	5.010																															-486.32840	985.42468	1382.02026				-598.58765	968.78546	1568.72461				-810.17426	990.22015	1375.78882	-628.36438	519.15497	1581.49585				-773.65430	118.88376	1546.96716	-1013.49731	301.08051	1396.71265	
503	5.020																															-483.82834	988.93195	1389.04651				-595.08405	969.26654	1574.14856				-808.50403	991.26648	1384.94141	-622.57263	518.20520	1586.57166				-773.80933	119.57429	1546.91858	-1010.58691	302.18625	1417.59937	
504	5.030																															-481.70847	989.91571	1396.09033				-589.06238	970.80237	1578.12891				-807.64124	992.48816	1393.15601	-616.81189	519.74530	1589.64758				-773.44086	119.30841	1547.31140	-1007.28510	302.49118	1439.23914	
505	5.040																															-480.81866	990.86646	1402.27087				-584.62982	971.19989	1581.31921				-807.11157	993.61127	1401.42090	-610.94183	519.57153	1591.97778				-773.34784	120.70169	1547.50220	-1003.70221	301.62363	1460.70093	
506	5.050																															-478.71008	992.80017	1409.06116				-580.35834	972.70197	1585.73242				-806.96448	994.20050	1409.26843	-605.01666	518.81085	1593.13074				-773.27728	120.80152	1547.55188	-999.78180	299.94626	1482.71082	
